HIERARCHY
ROOT Hips
{
  OFFSET 46.7963 99.1727 32.9207
  CHANNELS 6 Xposition Yposition Zposition Zrotation Xrotation Yrotation
  JOINT spine
  {
    OFFSET 0 8.30104 0.477351
    CHANNELS 3 Zrotation Xrotation Yrotation
    JOINT spine1
    {
      OFFSET 0 10.4565 0
      CHANNELS 3 Zrotation Xrotation Yrotation
      JOINT spine2
      {
        OFFSET 0 10.0192 0
        CHANNELS 3 Zrotation Xrotation Yrotation
        JOINT Neck
        {
          OFFSET 0 25.7235 1.22641
          CHANNELS 3 Zrotation Xrotation Yrotation
          JOINT Head
          {
            OFFSET 0 7.77175 0
            CHANNELS 3 Zrotation Xrotation Yrotation
            End Site
            {
              OFFSET 0 18.812 -6.20394
            }
          }
        }
        JOINT RightShoulder
        {
          OFFSET -4.2188 10.82 -0.587439
          CHANNELS 3 Zrotation Xrotation Yrotation
          JOINT RightArm
          {
            OFFSET 0 14.1914 0
            CHANNELS 3 Zrotation Xrotation Yrotation
            JOINT RightArmRoll
            {
              OFFSET 0 7.16408 0
              CHANNELS 3 Zrotation Xrotation Yrotation
              JOINT RightForeArm
              {
                OFFSET 0 20.8665 0
                CHANNELS 3 Zrotation Xrotation Yrotation
                JOINT RightForeArmRoll
                {
                  OFFSET 0 8.03921 0
                  CHANNELS 3 Zrotation Xrotation Yrotation
                  JOINT RightHand
                  {
                    OFFSET 0 16.133 0
                    CHANNELS 3 Zrotation Xrotation Yrotation
                    End Site
                    {
                      OFFSET 0 0 0
                    }
                  }
                }
              }
            }
          }
        }
        JOINT LeftShoulder
        {
          OFFSET 4.2188 10.82 -0.587439
          CHANNELS 3 Zrotation Xrotation Yrotation
          JOINT LeftArm
          {
            OFFSET 0 14.1914 0
            CHANNELS 3 Zrotation Xrotation Yrotation
            JOINT LeftArmRoll
            {
              OFFSET 0 7.16408 0
              CHANNELS 3 Zrotation Xrotation Yrotation
              JOINT LeftForeArm
              {
                OFFSET 0 20.8665 0
                CHANNELS 3 Zrotation Xrotation Yrotation
                JOINT LeftForeArmRoll
                {
                  OFFSET 0 8.03921 0
                  CHANNELS 3 Zrotation Xrotation Yrotation
                  JOINT LeftHand
                  {
                    OFFSET 0 16.133 0
                    CHANNELS 3 Zrotation Xrotation Yrotation
                    End Site
                    {
                      OFFSET 0 0 0
                    }
                  }
                }
              }
            }
          }
        }
      }
    }
  }
  JOINT RightUpLeg
  {
    OFFSET -7.35773 -1.34921 -1.13181
    CHANNELS 3 Zrotation Xrotation Yrotation
    JOINT RightUpLegRoll
    {
      OFFSET 0 18.9168 0
      CHANNELS 3 Zrotation Xrotation Yrotation
      JOINT RightLeg
      {
        OFFSET 0 -23.4256 0
        CHANNELS 3 Zrotation Xrotation Yrotation
        JOINT RightLegRoll
        {
          OFFSET 0 23.5023 0
          CHANNELS 3 Zrotation Xrotation Yrotation
          JOINT RightFoot
          {
            OFFSET 0 19.5617 0
            CHANNELS 3 Zrotation Xrotation Yrotation
            JOINT RightToeBase
            {
              OFFSET 0 16.3526 0
              CHANNELS 3 Zrotation Xrotation Yrotation
              End Site
              {
                OFFSET 0.00693125 7.91944 -0.912836
              }
            }
          }
        }
      }
    }
  }
  JOINT LeftUpLeg
  {
    OFFSET 7.35773 -1.34921 -1.13181
    CHANNELS 3 Zrotation Xrotation Yrotation
    JOINT LeftUpLegRoll
    {
      OFFSET 0 18.9169 0
      CHANNELS 3 Zrotation Xrotation Yrotation
      JOINT LeftLeg
      {
        OFFSET 0 23.4255 0
        CHANNELS 3 Zrotation Xrotation Yrotation
        JOINT LeftLegRoll
        {
          OFFSET 0 23.7195 0
          CHANNELS 3 Zrotation Xrotation Yrotation
          JOINT LeftFoot
          {
            OFFSET 0 19.3444 0
            CHANNELS 3 Zrotation Xrotation Yrotation
            JOINT LeftToeBase
            {
              OFFSET 0 16.3526 0
              CHANNELS 3 Zrotation Xrotation Yrotation
              End Site
              {
                OFFSET -0.0310629 7.91944 -0.912836
              }
            }
          }
        }
      }
    }
  }
}
MOTION
Frames: 9
Frame Time: 0.00208333
48.5158 54.329 -1.18413 -2.0964 -27.8748 2.91401 0.433107 3.46416 -0.40813 0.896752 10.9277 -0.889756 0.910846 12.5725 -0.907211 8.65009 28.8768 -4.49534 -6.60147 -12.7458 -2.42216 85.6334 0.387704 -2.85664 77.0141 8.44269 -10.3369 1.74844e-006 -4.21161e-008 -7.66364e-007 73.3408 81.6275 -72.6811 -6.75614e-006 7.91474e-006 -3.00408 8.02936 -4.95116 0.697576 -62.5673 1.62588 -0.449648 -99.9702 7.33002 7.10315 4.96568e-006 -4.0803e-007 4.94294e-007 -20.5343 68.3776 16.951 -2.84706e-007 -2.40772e-005 3 -8.02933 -4.95123 -0.697589 143.552 54.9554 43.9713 -180 3.0506e-005 178.419 -12.8155 81.3702 12.9469 8.04802e-006 -3.98101e-006 2.06162 -30.9328 72.087 24.7674 8.13137 25.2382 -3.48192 -141.848 59.0848 -39.97 4.54188e-006 -4.6773e-006 -1.59938 155.262 -78.292 150.65 -4.48238e-006 -7.8031e-006 -2.40962 28.0228 72.2241 -24.5356 -8.18784 26.0807 3.5078 
48.5133 54.3349 -1.1917 -2.09788 -27.8764 2.91317 0.433242 3.46716 -0.408438 0.897067 10.9336 -0.891294 0.911185 12.5785 -0.908765 8.64571 28.895 -4.49426 -6.59963 -12.7708 -2.4225 85.6499 0.393252 -2.85655 77.0057 8.47044 -10.3416 1.74844e-006 -4.21161e-008 -7.66364e-007 73.3765 81.6295 -72.7195 -6.75614e-006 7.91474e-006 -3.00408 8.02936 -4.95116 0.697576 -62.5736 1.63426 -0.45352 -99.9662 7.3466 7.07302 4.96568e-006 -4.0803e-007 4.94294e-007 -20.52 68.3717 16.9413 -2.84706e-007 -2.40772e-005 3 -8.02933 -4.95123 -0.697589 143.562 54.9559 43.9624 -180 3.0506e-005 178.419 -12.8224 81.372 12.9538 8.04802e-006 -3.98101e-006 2.06159 -30.9282 72.086 24.7644 8.13137 25.2382 -3.48192 -141.86 59.0879 -39.9537 4.54188e-006 -4.6773e-006 -1.59938 155.251 -78.2917 150.635 -4.48238e-006 -7.8031e-006 -2.40898 28.0101 72.2195 -24.5297 -8.18801 26.0832 3.50801 
48.5125 54.3388 -1.19419 -2.09941 -27.8778 2.91214 0.433297 3.47009 -0.408709 0.89719 10.9395 -0.89277 0.911331 12.5844 -0.910252 8.64294 28.9124 -4.49364 -6.59867 -12.795 -2.42286 85.6677 0.398996 -2.85652 76.9967 8.49847 -10.3452 1.74844e-006 -4.21161e-008 -7.66364e-007 73.4092 81.6311 -72.7545 -6.75614e-006 7.91474e-006 -3.00408 8.02936 -4.95116 0.697576 -62.5791 1.64262 -0.457509 -99.9633 7.36325 7.04229 4.96568e-006 -4.0803e-007 4.94294e-007 -20.5051 68.3654 16.9311 -2.84706e-007 -2.40772e-005 3 -8.02933 -4.95123 -0.697589 143.571 54.9567 43.9532 -180 3.0506e-005 178.419 -12.8287 81.3737 12.9601 8.04802e-006 -3.98101e-006 2.06155 -30.9235 72.0849 24.7612 8.13137 25.2382 -3.48192 -141.872 59.091 -39.9382 4.54188e-006 -4.6773e-006 -1.59938 155.24 -78.2916 150.622 -4.48238e-006 -7.8031e-006 -2.40832 27.998 72.2149 -24.524 -8.18818 26.0856 3.50821 
48.5185 54.3344 -1.18636 -2.10098 -27.8791 2.91097 0.433294 3.473 -0.408956 0.897179 10.9453 -0.894202 0.911342 12.5902 -0.911694 8.64127 28.9292 -4.49335 -6.59834 -12.8186 -2.42323 85.6865 0.404875 -2.85656 76.9872 8.52672 -10.3481 1.74844e-006 -4.21161e-008 -7.66364e-007 73.4399 81.6324 -72.7873 -6.75614e-006 7.91474e-006 -3.00408 8.02936 -4.95116 0.697576 -62.5839 1.65097 -0.46158 -99.961 7.37993 7.01115 4.96568e-006 -4.0803e-007 4.94294e-007 -20.4899 68.3587 16.9205 -2.84706e-007 -2.40772e-005 3 -8.02933 -4.95123 -0.697589 143.581 54.9578 43.944 -180 3.0506e-005 178.419 -12.8347 81.3754 12.9661 8.04802e-006 -3.98101e-006 2.0615 -30.9188 72.0839 24.758 8.13137 25.2382 -3.48192 -141.884 59.0939 -39.9232 4.54188e-006 -4.6773e-006 -1.59938 155.229 -78.2916 150.608 -4.48238e-006 -7.8031e-006 -2.40765 27.9862 72.2103 -24.5184 -8.18834 26.0879 3.50842 
48.5131 54.3315 -1.1883 -2.10256 -27.8804 2.90972 0.433259 3.47588 -0.409187 0.897093 10.9511 -0.895609 0.911277 12.596 -0.913109 8.64025 28.9457 -4.49325 -6.59836 -12.8418 -2.42362 85.7058 0.410833 -2.85662 76.9774 8.55507 -10.3505 1.74844e-006 -4.21161e-008 -7.66364e-007 73.4693 81.6336 -72.8189 -6.75614e-006 7.91474e-006 -3.00408 8.02936 -4.95116 0.697576 -62.5883 1.65932 -0.465698 -99.9592 7.39663 6.97978 4.96568e-006 -4.0803e-007 4.94294e-007 -20.4745 68.3518 16.9097 -2.84706e-007 -2.40772e-005 3 -8.02933 -4.95123 -0.697589 143.59 54.9589 43.9347 -180 3.0506e-005 178.419 -12.8405 81.3771 12.9718 8.04802e-006 -3.98101e-006 2.06145 -30.9141 72.0829 24.7548 8.13137 25.2382 -3.48192 -141.895 59.0969 -39.9085 4.54188e-006 -4.6773e-006 -1.59938 155.219 -78.2916 150.595 -4.48238e-006 -7.8031e-006 -2.40697 27.9747 72.2057 -24.5128 -8.1885 26.0901 3.50863 
48.5139 54.3326 -1.18527 -2.10415 -27.8817 2.90844 0.433217 3.47875 -0.409416 0.896988 10.9568 -0.89701 0.911193 12.6017 -0.914517 8.63938 28.9621 -4.49319 -6.59847 -12.865 -2.42401 85.7253 0.41681 -2.85669 76.9676 8.58346 -10.3529 1.74844e-006 -4.21161e-008 -7.66364e-007 73.4986 81.6347 -72.8502 -6.75614e-006 7.91474e-006 -3.00408 8.02936 -4.95116 0.697576 -62.5927 1.66766 -0.469827 -99.9574 7.41333 6.94834 4.96568e-006 -4.0803e-007 4.94294e-007 -20.459 68.3448 16.8989 -2.84706e-007 -2.40772e-005 3 -8.02933 -4.95123 -0.697589 143.6 54.9601 43.9253 -180 3.0506e-005 178.419 -12.8463 81.3789 12.9774 8.04802e-006 -3.98101e-006 2.0614 -30.9093 72.0818 24.7515 8.13137 25.2382 -3.48192 -141.906 59.0998 -39.8939 4.54188e-006 -4.6773e-006 -1.59938 155.209 -78.2917 150.582 -4.48238e-006 -7.8031e-006 -2.40629 27.9632 72.2011 -24.5073 -8.18866 26.0924 3.50884 
48.5169 54.3321 -1.17968 -2.10573 -27.883 2.90721 0.43319 3.48164 -0.409651 0.896921 10.9626 -0.898423 0.911148 12.6075 -0.915939 8.63819 28.9787 -4.49305 -6.59841 -12.8883 -2.42439 85.7445 0.422748 -2.85674 76.9578 8.61178 -10.3555 1.74844e-006 -4.21161e-008 -7.66364e-007 73.5284 81.6358 -72.882 -6.75614e-006 7.91474e-006 -3.00408 8.02936 -4.95116 0.697576 -62.5972 1.67601 -0.473933 -99.9554 7.43003 6.91702 4.96568e-006 -4.0803e-007 4.94294e-007 -20.4436 68.338 16.8882 -2.84706e-007 -2.40772e-005 3 -8.02933 -4.95123 -0.697589 143.609 54.9613 43.916 -180 3.0506e-005 178.419 -12.8521 81.3806 12.9832 8.04802e-006 -3.98101e-006 2.06134 -30.9046 72.0807 24.7483 8.13137 25.2382 -3.48192 -141.917 59.1027 -39.8791 4.54188e-006 -4.6773e-006 -1.59938 155.198 -78.2918 150.569 -4.48238e-006 -7.8031e-006 -2.40562 27.9516 72.1965 -24.5017 -8.18882 26.0946 3.50905 
48.5154 54.3338 -1.18056 -2.10728 -27.8843 2.90608 0.433204 3.48455 -0.409905 0.89695 10.9684 -0.899868 0.911199 12.6133 -0.917394 8.63621 28.9957 -4.49266 -6.5979 -12.912 -2.42477 85.763 0.428589 -2.85676 76.9485 8.63997 -10.3586 1.74844e-006 -4.21161e-008 -7.66364e-007 73.5597 81.6372 -72.9156 -6.75614e-006 7.91474e-006 -3.00408 8.02936 -4.95116 0.697576 -62.6022 1.68436 -0.477981 -99.9529 7.44669 6.88599 4.96568e-006 -4.0803e-007 4.94294e-007 -20.4285 68.3314 16.8778 -2.84706e-007 -2.40772e-005 3 -8.02933 -4.95123 -0.697589 143.619 54.9622 43.9067 -180 3.0506e-005 178.42 -12.8583 81.3823 12.9893 8.04802e-006 -3.98101e-006 2.0613 -30.8999 72.0797 24.7451 8.13137 25.2382 -3.48192 -141.929 59.1057 -39.8639 4.54188e-006 -4.6773e-006 -1.59938 155.188 -78.2917 150.556 -4.48238e-006 -7.8031e-006 -2.40495 27.9398 72.1919 -24.4961 -8.18898 26.097 3.50925 
48.5141 54.3344 -1.18193 -2.1088 -27.8858 2.9051 0.433282 3.48751 -0.410187 0.897132 10.9743 -0.901362 0.911405 12.6192 -0.918901 8.63295 29.0133 -4.49191 -6.59668 -12.9365 -2.42512 85.7805 0.434273 -2.85671 76.9397 8.66791 -10.3625 1.74844e-006 -4.21161e-008 -7.66364e-007 73.5933 81.6389 -72.9517 -6.75614e-006 7.91474e-006 -3.00408 8.02936 -4.95116 0.697576 -62.6079 1.69273 -0.481935 -99.9495 7.46332 6.85543 4.96568e-006 -4.0803e-007 4.94294e-007 -20.4138 68.3252 16.8677 -2.84706e-007 -2.40772e-005 3 -8.02933 -4.95123 -0.697589 143.628 54.9629 43.8977 -180 3.0506e-005 178.42 -12.8648 81.384 12.9957 8.04802e-006 -3.98101e-006 2.06126 -30.8953 72.0787 24.742 8.13137 25.2382 -3.48192 -141.941 59.1087 -39.8482 4.54188e-006 -4.6773e-006 -1.59938 155.176 -78.2915 150.542 -4.48238e-006 -7.8031e-006 -2.4043 27.9275 72.1873 -24.4903 -8.18915 26.0994 3.50946 
